<?xml version="1.0" encoding="UTF-8"?>
<svg version="1.1" xmlns="http://www.w3.org/2000/svg" width="180" height="180">
<path d="M0 0 C3.375 1 3.375 1 5.375 4 C4.93055556 9.44444444 4.93055556 9.44444444 2.375 12 C-1.67761287 12.34490322 -3.17254176 12.30163882 -6.625 10 C-7.5625 7.6875 -7.5625 7.6875 -7.625 5 C-5.50310437 0.93303338 -4.67013393 0 0 0 Z " fill="#945DEE" transform="translate(63.625,143)"/>
<path d="M0 0 C2.75 1.375 2.75 1.375 3.75 3.375 C4.0625 6.3125 4.0625 6.3125 3.75 9.375 C2.0625 11.3125 2.0625 11.3125 -0.25 12.375 C-3.10343764 12.23580792 -4.71462886 11.74422147 -7.0625 10.125 C-8.25 8.375 -8.25 8.375 -8.75 5.9375 C-8.25 3.375 -8.25 3.375 -6.125 0.9375 C-3.25 -0.625 -3.25 -0.625 0 0 Z " fill="#955EF5" transform="translate(137.25,131.625)"/>
<path d="M0 0 C2.5625 0.5 2.5625 0.5 4.9375 2.6875 C6.5625 5.5 6.5625 5.5 6.4375 8.1875 C5.5625 10.5 5.5625 10.5 3.5625 12.5 C0.125 12.875 0.125 12.875 -3.4375 12.5 C-5.4375 10.8125 -5.4375 10.8125 -6.4375 8.5 C-6.29830792 5.64656236 -5.80672147 4.03537114 -4.1875 1.6875 C-2.4375 0.5 -2.4375 0.5 0 0 Z " fill="#965BE9" transform="translate(46.4375,131.5)"/>
<path d="M0 0 C1.875 1.125 1.875 1.125 3 3 C3.39365568 6.14924548 3.52854531 8.11909116 1.875 10.875 C-0.88090884 12.52854531 -2.85075452 12.39365568 -6 12 C-7.875 10.875 -7.875 10.875 -9 9 C-9.39365568 5.85075452 -9.52854531 3.88090884 -7.875 1.125 C-5.11909116 -0.52854531 -3.14924548 -0.39365568 0 0 Z " fill="#945DED" transform="translate(157,98)"/>
<path d="M0 0 C1.9375 1.6875 1.9375 1.6875 3 4 C2.86080792 6.85343764 2.36922147 8.46462886 0.75 10.8125 C-1 12 -1 12 -3.4375 12.5 C-6 12 -6 12 -8.4375 9.875 C-10 7 -10 7 -9.375 3.75 C-7.17484152 -0.65031696 -4.67423514 -0.47696277 0 0 Z " fill="#945DEC" transform="translate(154,60)"/>
<path d="M0 0 C3.4375 0.8125 3.4375 0.8125 5.4375 3.8125 C5.23261638 6.54428163 4.72113 8.33978333 3.3125 10.6875 C1.4375 11.8125 1.4375 11.8125 -2.125 11.6875 C-5.5625 10.8125 -5.5625 10.8125 -7.5625 7.8125 C-7.375 4.75 -7.375 4.75 -6.5625 1.8125 C-3.5625 -0.1875 -3.5625 -0.1875 0 0 Z " fill="#945EF1" transform="translate(40.5625,44.1875)"/>
<path d="M0 0 C3.375 1 3.375 1 5.375 4 C4.93055556 9.44444444 4.93055556 9.44444444 2.375 12 C-2.82315668 12.55299539 -2.82315668 12.55299539 -5.4375 10.75 C-6.85443959 8.6618785 -7.55008186 7.54721662 -7.625 5 C-5.47864004 0.97557508 -4.65353258 0 0 0 Z " fill="#975AE9" transform="translate(141.625,43)"/>
<path d="M0 0 C1.9375 1.625 1.9375 1.625 3 4 C2.875 7.125 2.875 7.125 2 10 C-1.24153166 12.1610211 -2.23692901 12.64247553 -6 12 C-8.4375 9.875 -8.4375 9.875 -10 7 C-9.375 3.75 -9.375 3.75 -8 1 C-5.17116253 -0.41441874 -3.12623255 -0.31900332 0 0 Z " fill="#955BE8" transform="translate(112,22)"/>
<path d="M0 0 C2.73145737 0.88772365 3.89120004 1.44163691 5.5 3.8125 C5.92317323 6.63365488 5.88718434 8.15200907 4.4375 10.625 C1.37386726 12.50271039 -1.00164045 12.24979494 -4.5 11.8125 C-6.5625 10.1875 -6.5625 10.1875 -7.5 7.8125 C-6.875 4.6875 -6.875 4.6875 -5.5 1.8125 C-2.5 -0.1875 -2.5 -0.1875 0 0 Z " fill="#955CEF" transform="translate(101.5,148.1875)"/>
<path d="M0 0 C2.375 1.1875 2.375 1.1875 3.375 3.1875 C3.6875 6.125 3.6875 6.125 3.375 9.1875 C1.75 11.125 1.75 11.125 -0.625 12.1875 C-3.75 12.0625 -3.75 12.0625 -6.625 11.1875 C-8.78002531 7.95496204 -9.09356135 6.93599077 -8.625 3.1875 C-6.23262525 -0.002333 -3.95123567 -1.22300152 0 0 Z " fill="#945EF0" transform="translate(121.625,142.8125)"/>
<path d="M0 0 C1.8125 1.125 1.8125 1.125 3 3 C3.39365568 6.14924548 3.52854531 8.11909116 1.875 10.875 C-0.88090884 12.52854531 -2.85075452 12.39365568 -6 12 C-7.875 10.875 -7.875 10.875 -9 9 C-9.4375 6 -9.4375 6 -9 3 C-6.30254095 0.00282328 -3.95012118 -0.60771095 0 0 Z " fill="#955BE8" transform="translate(30,99)"/>
<path d="M0 0 C2.3125 1.375 2.3125 1.375 4.3125 4.375 C4.1034311 7.16258532 3.65247443 8.88203708 2.0625 11.1875 C-0.3560327 12.82864719 -1.82300877 12.80467368 -4.6875 12.375 C-6.5 11.3125 -6.5 11.3125 -7.6875 9.375 C-8.1875 5.875 -8.1875 5.875 -7.6875 2.375 C-4.93946143 -0.2160078 -3.71360934 -0.86363008 0 0 Z " fill="#955CEF" transform="translate(27.6875,79.625)"/>
<path d="M0 0 C2.75 1.375 2.75 1.375 3.75 3.375 C4.0625 6.3125 4.0625 6.3125 3.75 9.375 C2.0625 11.3125 2.0625 11.3125 -0.25 12.375 C-3.10343764 12.23580792 -4.71462886 11.74422147 -7.0625 10.125 C-8.25 8.375 -8.25 8.375 -8.75 5.9375 C-8.25 3.375 -8.25 3.375 -6.125 0.9375 C-3.25 -0.625 -3.25 -0.625 0 0 Z " fill="#955BE8" transform="translate(157.25,78.625)"/>
<path d="M0 0 C2.3125 1.3125 2.3125 1.3125 4.3125 3.3125 C4.83239831 6.60518932 4.58561726 7.91332862 2.6875 10.6875 C0.3125 12.3125 0.3125 12.3125 -2.8125 12.1875 C-5.6875 11.3125 -5.6875 11.3125 -7.6875 9.3125 C-8.125 5.875 -8.125 5.875 -7.6875 2.3125 C-4.92542247 -0.29174453 -3.71841348 -0.95122205 0 0 Z " fill="#945EEF" transform="translate(55.6875,30.6875)"/>
<path d="M0 0 C1.8125 1.125 1.8125 1.125 3 3 C3.39365568 6.14924548 3.52854531 8.11909116 1.875 10.875 C-0.91106042 12.54663625 -2.81988862 12.46376624 -6 12 C-7.9375 10.375 -7.9375 10.375 -9 8 C-8.875 4.875 -8.875 4.875 -8 2 C-4.76746204 -0.15502531 -3.74849077 -0.46856135 0 0 Z " fill="#955BE9" transform="translate(37,117)"/>
<path d="M0 0 C1.9375 1.0625 1.9375 1.0625 3 3 C2.875 6.5625 2.875 6.5625 2 10 C-1 12 -1 12 -4.0625 11.75 C-7 11 -7 11 -9 9 C-9.33015665 5.89652746 -9.50531294 3.84218824 -7.875 1.125 C-5.11909116 -0.52854531 -3.14924548 -0.39365568 0 0 Z " fill="#965BE7" transform="translate(33,61)"/>
<path d="M0 0 C1.8125 1.125 1.8125 1.125 3 3 C3.39365568 6.14924548 3.52854531 8.11909116 1.875 10.875 C-0.88090884 12.52854531 -2.85075452 12.39365568 -6 12 C-7.9375 10.9375 -7.9375 10.9375 -9 9 C-8.875 5.4375 -8.875 5.4375 -8 2 C-4.76746204 -0.15502531 -3.74849077 -0.46856135 0 0 Z " fill="#955DED" transform="translate(74,22)"/>
<path d="M0 0 C2.9375 0.75 2.9375 0.75 4.9375 2.75 C5.26765665 5.85347254 5.44281294 7.90781176 3.8125 10.625 C1.05659116 12.27854531 -0.91325452 12.14365568 -4.0625 11.75 C-6 10.6875 -6 10.6875 -7.0625 8.75 C-6.9375 5.1875 -6.9375 5.1875 -6.0625 1.75 C-3.0625 -0.25 -3.0625 -0.25 0 0 Z " fill="#945DEF" transform="translate(148.0625,116.25)"/>
<path d="M0 0 C1.8125 1.125 1.8125 1.125 3 3 C3.39365568 6.14924548 3.52854531 8.11909116 1.875 10.875 C-0.91106042 12.54663625 -2.81988862 12.46376624 -6 12 C-7.9375 10.375 -7.9375 10.375 -9 8 C-8.875 4.875 -8.875 4.875 -8 2 C-4.76746204 -0.15502531 -3.74849077 -0.46856135 0 0 Z " fill="#965BE7" transform="translate(129,30)"/>
<path d="M0 0 C3.5625 0.375 3.5625 0.375 5.5625 2.0625 C6.82576211 4.98379364 6.58266252 6.39298647 5.5625 9.375 C3.5625 11.375 3.5625 11.375 0.125 11.75 C-3.4375 11.375 -3.4375 11.375 -5.4375 9.6875 C-6.70076211 6.76620636 -6.45766252 5.35701353 -5.4375 2.375 C-3.4375 0.375 -3.4375 0.375 0 0 Z " fill="#935DF1" transform="translate(90.4375,19.625)"/>
<path d="M0 0 C1.875 1.125 1.875 1.125 3 3 C3.3125 6.0625 3.3125 6.0625 3 9 C0.67471713 11.32528287 0.15334102 11.29511025 -3 11.3125 C-3.70125 11.32925781 -4.4025 11.34601563 -5.125 11.36328125 C-5.74375 11.24339844 -6.3625 11.12351563 -7 11 C-9.15502531 7.76746204 -9.46856135 6.74849077 -9 3 C-6.73529086 -0.64869805 -4.03159541 -0.50394943 0 0 Z " fill="#945EF0" transform="translate(84,149)"/>
<path d="M0 0 C1.8125 1.1875 1.8125 1.1875 3 3 C3.4334014 5.88934264 3.42525784 7.35092224 1.8125 9.8125 C-0.64907776 11.42525784 -2.11065736 11.4334014 -5 11 C-6.8125 9.8125 -6.8125 9.8125 -8 8 C-8.4334014 5.11065736 -8.42525784 3.64907776 -6.8125 1.1875 C-4.35092224 -0.42525784 -2.88934264 -0.4334014 0 0 Z " fill="#A93284" transform="translate(74,36)"/>
<path d="M0 0 C2.9375 0.875 2.9375 0.875 4.9375 3.875 C4.6133631 7.19740324 4.32973697 8.48276303 1.9375 10.875 C-0.90852594 11.23987512 -2.4489306 11.27699375 -4.875 9.6875 C-6.48775784 7.22592224 -6.4959014 5.76434264 -6.0625 2.875 C-4.29035152 -0.0785808 -3.47140412 -0.14168996 0 0 Z " fill="#AD3584" transform="translate(133.0625,115.125)"/>
<path d="M0 0 C2.4375 0.75 2.4375 0.75 4.4375 2.75 C4.0625 6.375 4.0625 6.375 3.4375 9.75 C1.1275 10.08 -1.1825 10.41 -3.5625 10.75 C-5.125 9.0625 -5.125 9.0625 -6.5625 6.75 C-6.4375 4.125 -6.4375 4.125 -5.5625 1.75 C-2.5625 -0.25 -2.5625 -0.25 0 0 Z " fill="#A73C96" transform="translate(50.5625,117.25)"/>
<path d="M0 0 C2 3 2 3 1.8125 5.5625 C1 8 1 8 -2 10 C-5.1875 9.625 -5.1875 9.625 -8 9 C-9.32561852 2.61292897 -9.32561852 2.61292897 -7.9375 0 C-4.99948754 -1.51639353 -3.09843192 -0.92293717 0 0 Z " fill="#AA398E" transform="translate(48,63)"/>
<path d="M0 0 C1.875 1.125 1.875 1.125 3 3 C2.875 6.0625 2.875 6.0625 2 9 C-1 11 -1 11 -3.5625 10.75 C-6 10 -6 10 -8 8 C-7.75 4.4375 -7.75 4.4375 -7 1 C-4.45132831 -0.27433584 -2.82594567 -0.27570202 0 0 Z " fill="#AA398F" transform="translate(126,45)"/>
<path d="M0 0 C2.375 0.875 2.375 0.875 4.375 3.875 C4.0508631 7.19740324 3.76723697 8.48276303 1.375 10.875 C-2.25 10.5 -2.25 10.5 -5.625 9.875 C-5.955 7.565 -6.285 5.255 -6.625 2.875 C-4.28062075 0.70427848 -3.2584281 -0.15516324 0 0 Z " fill="#A246B3" transform="translate(91.625,32.125)"/>
<path d="M0 0 C2.375 1.3125 2.375 1.3125 4.375 3.3125 C4.04528521 6.60964793 3.7523161 7.9351839 1.375 10.3125 C-1.625 10.5625 -1.625 10.5625 -4.625 10.3125 C-6.625 8.3125 -6.625 8.3125 -7 5.375 C-6.625 2.3125 -6.625 2.3125 -4.9375 0.3125 C-2.625 -0.6875 -2.625 -0.6875 0 0 Z " fill="#A444AA" transform="translate(141.625,97.6875)"/>
<path d="M0 0 C2 3 2 3 1.8125 5.5625 C1 8 1 8 -2 10 C-5.32240324 9.6758631 -6.60776303 9.39223697 -9 7 C-8.75 3.4375 -8.75 3.4375 -8 0 C-5.06791253 -1.46604374 -3.11702298 -0.77925574 0 0 Z " fill="#AE3380" transform="translate(45,101)"/>
<path d="M0 0 C2.375 0.875 2.375 0.875 4.375 3.875 C4.0508631 7.19740324 3.76723697 8.48276303 1.375 10.875 C-2.25 10.5 -2.25 10.5 -5.625 9.875 C-5.955 7.565 -6.285 5.255 -6.625 2.875 C-4.28062075 0.70427848 -3.2584281 -0.15516324 0 0 Z " fill="#AA398E" transform="translate(142.625,78.125)"/>
<path d="M0 0 C1.875 1.125 1.875 1.125 3 3 C2.875 6.0625 2.875 6.0625 2 9 C-1 11 -1 11 -3.5625 10.75 C-6 10 -6 10 -8 8 C-8.36487512 5.15397406 -8.40199375 3.6135694 -6.8125 1.1875 C-4.35092224 -0.42525784 -2.88934264 -0.4334014 0 0 Z " fill="#AC3789" transform="translate(138,60)"/>
<path d="M0 0 C0.9075 0.391875 1.815 0.78375 2.75 1.1875 C4.06668238 6.5739279 4.06668238 6.5739279 2.75 9.125 C-0.36004763 10.77721281 -2.90727278 9.88127357 -6.25 9.1875 C-6.58 6.8775 -6.91 4.5675 -7.25 2.1875 C-4.52596974 -0.53653026 -3.86366821 -0.96591705 0 0 Z " fill="#A93A92" transform="translate(57.25,46.8125)"/>
<path d="M0 0 C2.375 1.3125 2.375 1.3125 4.375 3.3125 C4.04528521 6.60964793 3.7523161 7.9351839 1.375 10.3125 C-1.625 10.5625 -1.625 10.5625 -4.625 10.3125 C-6.625 8.3125 -6.625 8.3125 -7 5.375 C-6.625 2.3125 -6.625 2.3125 -4.9375 0.3125 C-2.625 -0.6875 -2.625 -0.6875 0 0 Z " fill="#A147B2" transform="translate(102.625,136.6875)"/>
<path d="M0 0 C0.66 1.98 1.32 3.96 2 6 C0.375 8.0625 0.375 8.0625 -2 10 C-7.3125 9.6875 -7.3125 9.6875 -9 8 C-9.45378151 2.78151261 -9.45378151 2.78151261 -7.875 0.0625 C-5.07329973 -1.52513015 -3.03014356 -0.74070176 0 0 Z " fill="#A73DA1" transform="translate(68,131)"/>
<path d="M0 0 C6.57692308 0.57692308 6.57692308 0.57692308 8 2 C8.3125 4.875 8.3125 4.875 8 8 C6.25 9.9375 6.25 9.9375 4 11 C1.48556239 10.84760984 0.25174913 10.17362009 -1.8125 8.75 C-3 7 -3 7 -2.8125 4.4375 C-2 2 -2 2 0 0 Z " fill="#A63D9A" transform="translate(116,129)"/>
<path d="M0 0 C3.0625 0.375 3.0625 0.375 5 2.125 C6.0625 4.375 6.0625 4.375 6 6.4375 C4.74284738 9.03561541 3.64817408 10.08216296 1.0625 11.375 C-1.33013407 10.70728817 -3.15847385 10.15402615 -4.9375 8.375 C-5.125 5.4375 -5.125 5.4375 -4.9375 2.375 C-2.9375 0.375 -2.9375 0.375 0 0 Z " fill="#A73E9D" transform="translate(38.9375,80.625)"/>
<path d="M0 0 C2.4375 0.75 2.4375 0.75 4.4375 2.75 C4.8008156 5.58386167 4.7943671 7.15522151 3.3125 9.625 C1.4375 10.75 1.4375 10.75 -1.625 10.625 C-4.5625 9.75 -4.5625 9.75 -6.5625 6.75 C-6.375 4.1875 -6.375 4.1875 -5.5625 1.75 C-2.5625 -0.25 -2.5625 -0.25 0 0 Z " fill="#A93B95" transform="translate(107.5625,35.25)"/>
<path d="M0 0 C6.875 0.875 6.875 0.875 8 2 C8.45691383 7.25450902 8.45691383 7.25450902 6.8125 9.9375 C5 11 5 11 2.5 11 C-0.74788441 9.70084623 -1.49860774 8.08180517 -3 5 C-2.01 3.35 -1.02 1.7 0 0 Z " fill="#A83C96" transform="translate(79,137)"/>
<path d="M0 0 C3.29714793 0.32971479 4.6226839 0.6226839 7 3 C6.9375 5.5 6.9375 5.5 6 8 C3.6875 9.5 3.6875 9.5 1 10 C-1.3125 8.625 -1.3125 8.625 -3 7 C-2.25 2.25 -2.25 2.25 0 0 Z " fill="#B32964" transform="translate(79,125)"/>
<path d="M0 0 C2.5 0.0625 2.5 0.0625 5 1 C6.3125 3.5625 6.3125 3.5625 7 6 C5.25 8.0625 5.25 8.0625 3 10 C-0.01811422 9.82246387 -0.83735215 9.16264785 -3 7 C-2.67028521 3.70285207 -2.3773161 2.3773161 0 0 Z " fill="#B32A65" transform="translate(98,125)"/>
<path d="M0 0 C3.125 0.375 3.125 0.375 6 1 C6.625 3.875 6.625 3.875 7 7 C5 9 5 9 2 9.3125 C1.01 9.209375 0.02 9.10625 -1 9 C-3 6 -3 6 -2.75 3.9375 C-2 2 -2 2 0 0 Z " fill="#B42862" transform="translate(114,116)"/>
<path d="M0 0 C2 3 2 3 1.6875 5.625 C1 8 1 8 0 9 C-2.33944736 8.71269945 -4.6739143 8.38063221 -7 8 C-7.6875 5.6875 -7.6875 5.6875 -8 3 C-5.94954219 -0.30351536 -3.71424389 -0.57142214 0 0 Z " fill="#B5255E" transform="translate(55,81)"/>
<path d="M0 0 C2.5 0.25 2.5 0.25 4.5 2.25 C4.75 4.75 4.75 4.75 4.5 7.25 C2.5 9.25 2.5 9.25 0.0625 9.5625 C-2.5 9.25 -2.5 9.25 -4.375 8 C-5.5 6.25 -5.5 6.25 -5.3125 4.1875 C-4.08293926 1.25547053 -3.19674031 0.31967403 0 0 Z " fill="#B42660" transform="translate(122.5,62.75)"/>
<path d="M0 0 C0.66 0.66 1.32 1.32 2 2 C1.625 5.125 1.625 5.125 1 8 C-4.43440487 9.32841008 -4.43440487 9.32841008 -6.9375 7.875 C-8 6 -8 6 -7.8125 3.375 C-6.43256772 -0.65864821 -3.86965876 -0.29022441 0 0 Z " fill="#B42862" transform="translate(75,50)"/>
<path d="M0 0 C2.5 0.25 2.5 0.25 4.5 2.25 C4.75 4.75 4.75 4.75 4.5 7.25 C2.5 9.25 2.5 9.25 0 9.5 C-2.5 9.25 -2.5 9.25 -4.5 7.25 C-4.75 4.75 -4.75 4.75 -4.5 2.25 C-2.5 0.25 -2.5 0.25 0 0 Z " fill="#B42862" transform="translate(64.5,115.75)"/>
<path d="M0 0 C2.5 0.25 2.5 0.25 4.5 2.25 C4.75 4.75 4.75 4.75 4.5 7.25 C2.5 9.25 2.5 9.25 0 9.5 C-2.5 9.25 -2.5 9.25 -4.5 7.25 C-4.75 4.75 -4.75 4.75 -4.5 2.25 C-2.5 0.25 -2.5 0.25 0 0 Z " fill="#B5275E" transform="translate(126.5,99.75)"/>
<path d="M0 0 C2.5 0.25 2.5 0.25 4.5 2.25 C4.75 4.75 4.75 4.75 4.5 7.25 C2.5 9.25 2.5 9.25 0 9.5 C-2.5 9.25 -2.5 9.25 -4.5 7.25 C-4.75 4.75 -4.75 4.75 -4.5 2.25 C-2.5 0.25 -2.5 0.25 0 0 Z " fill="#B5265E" transform="translate(54.5,99.75)"/>
<path d="M0 0 C2.5 0.25 2.5 0.25 4.5 2.25 C4.75 4.75 4.75 4.75 4.5 7.25 C2.5 9.25 2.5 9.25 0 9.5 C-2.5 9.25 -2.5 9.25 -4.5 7.25 C-4.75 4.75 -4.75 4.75 -4.5 2.25 C-2.5 0.25 -2.5 0.25 0 0 Z " fill="#B6265D" transform="translate(128.5,80.75)"/>
<path d="M0 0 C2.5 0.25 2.5 0.25 4.5 2.25 C4.75 4.75 4.75 4.75 4.5 7.25 C2.5 9.25 2.5 9.25 0 9.5 C-2.5 9.25 -2.5 9.25 -4.5 7.25 C-4.75 4.75 -4.75 4.75 -4.5 2.25 C-2.5 0.25 -2.5 0.25 0 0 Z " fill="#B5275F" transform="translate(58.5,62.75)"/>
<path d="M0 0 C2.5 0.25 2.5 0.25 4.5 2.25 C4.75 4.75 4.75 4.75 4.5 7.25 C2.5 9.25 2.5 9.25 0 9.5 C-2.5 9.25 -2.5 9.25 -4.5 7.25 C-4.75 4.75 -4.75 4.75 -4.5 2.25 C-2.5 0.25 -2.5 0.25 0 0 Z " fill="#B42862" transform="translate(108.5,49.75)"/>
<path d="M0 0 C2.5 0.25 2.5 0.25 4.5 2.25 C4.75 4.75 4.75 4.75 4.5 7.25 C2.5 9.25 2.5 9.25 0 9.5 C-2.5 9.25 -2.5 9.25 -4.5 7.25 C-4.75 4.75 -4.75 4.75 -4.5 2.25 C-2.5 0.25 -2.5 0.25 0 0 Z " fill="#B42964" transform="translate(90.5,44.75)"/>
<path d="M0 0 C0.78375 0.04125 1.5675 0.0825 2.375 0.125 C3.035 1.775 3.695 3.425 4.375 5.125 C3.1875 6.6875 3.1875 6.6875 1.375 8.125 C-1.3125 7.8125 -1.3125 7.8125 -3.625 7.125 C-4.25 4.75 -4.25 4.75 -4.625 2.125 C-2.625 0.125 -2.625 0.125 0 0 Z " fill="#BF1737" transform="translate(90.625,58.875)"/>
<path d="M0 0 C1.65 0.99 3.3 1.98 5 3 C4.75 4.875 4.75 4.875 4 7 C1.9375 8.25 1.9375 8.25 0 9 C-1.32 8.01 -2.64 7.02 -4 6 C-3.6875 4.125 -3.6875 4.125 -3 2 C-2.01 1.34 -1.02 0.68 0 0 Z " fill="#C11836" transform="translate(73,65)"/>
<path d="M0 0 C1.65 0.99 3.3 1.98 5 3 C4.1875 5.4375 4.1875 5.4375 3 8 C2.01 8.33 1.02 8.66 0 9 C-2.1875 7.5625 -2.1875 7.5625 -4 6 C-3.6875 4.125 -3.6875 4.125 -3 2 C-2.01 1.34 -1.02 0.68 0 0 Z " fill="#BE1A3B" transform="translate(99,112)"/>
<path d="M0 0 C2.625 0.375 2.625 0.375 5 1 C5.625 3.375 5.625 3.375 6 6 C5.34 6.66 4.68 7.32 4 8 C1.375 7.625 1.375 7.625 -1 7 C-1.625 4.625 -1.625 4.625 -2 2 C-1.34 1.34 -0.68 0.68 0 0 Z " fill="#BE1839" transform="translate(111,100)"/>
<path d="M0 0 C2.625 0.375 2.625 0.375 5 1 C5.625 3.375 5.625 3.375 6 6 C5.34 6.66 4.68 7.32 4 8 C0.875 7.625 0.875 7.625 -2 7 C-2.125 4.625 -2.125 4.625 -2 2 C-1.34 1.34 -0.68 0.68 0 0 Z " fill="#C01737" transform="translate(66,100)"/>
<path d="M0 0 C2.625 0.375 2.625 0.375 5 1 C5.625 3.375 5.625 3.375 6 6 C5.34 6.66 4.68 7.32 4 8 C1.375 7.625 1.375 7.625 -1 7 C-1.625 4.625 -1.625 4.625 -2 2 C-1.34 1.34 -0.68 0.68 0 0 Z " fill="#BF1837" transform="translate(114,82)"/>
<path d="M0 0 C2.5625 0.1875 2.5625 0.1875 4.5625 2.1875 C4.1875 4.8125 4.1875 4.8125 3.5625 7.1875 C1.1875 7.8125 1.1875 7.8125 -1.4375 8.1875 C-3.4375 6.1875 -3.4375 6.1875 -3.625 3.625 C-3.37291261 0.34786389 -3.27713611 0.25208739 0 0 Z " fill="#BE1735" transform="translate(64.4375,81.8125)"/>
<path d="M0 0 C2.475 0.99 2.475 0.99 5 2 C5 3.65 5 5.3 5 7 C3.02 7.99 3.02 7.99 1 9 C-0.32 8.01 -1.64 7.02 -3 6 C-2.42655063 3.13275314 -2.1385485 2.1385485 0 0 Z " fill="#BE193C" transform="translate(80,112)"/>
<path d="M0 0 C1.32 0.66 2.64 1.32 4 2 C4 3.65 4 5.3 4 7 C2.35 7.66 0.7 8.32 -1 9 C-2.5625 7.75 -2.5625 7.75 -4 6 C-3.875 3.9375 -3.875 3.9375 -3 2 C-2.01 1.34 -1.02 0.68 0 0 Z " fill="#BF1738" transform="translate(107,65)"/>
<path d="M0 0 C1.875 1.1875 1.875 1.1875 3 3 C2.6875 5.6875 2.6875 5.6875 2 8 C0.68176698 7.40844669 -0.62947051 6.80128537 -1.9375 6.1875 C-2.66839844 5.85105469 -3.39929688 5.51460937 -4.15234375 5.16796875 C-6 4 -6 4 -7 1 C-4.45132831 -0.27433584 -2.82594567 -0.27570202 0 0 Z " fill="#A642B3" transform="translate(126,45)"/>
<path d="M0 0 C1.22589844 0.01353516 1.22589844 0.01353516 2.4765625 0.02734375 C3.41628906 0.04474609 3.41628906 0.04474609 4.375 0.0625 C3.5 3.9375 3.5 3.9375 2.375 5.0625 C0.04202567 5.10342937 -2.29205225 5.10491723 -4.625 5.0625 C-5.285 3.7425 -5.945 2.4225 -6.625 1.0625 C-4.21954362 -0.14022819 -2.67503047 -0.03821472 0 0 Z " fill="#9955D8" transform="translate(91.625,25.9375)"/>
<path d="M0 0 C2.4375 0.6875 2.4375 0.6875 5 2 C6 4.375 6 4.375 6 7 C4.5625 9.3125 4.5625 9.3125 3 11 C2.01 10.67 1.02 10.34 0 10 C0 6.7 0 3.4 0 0 Z " fill="#A542A6" transform="translate(141,78)"/>
<path d="M0 0 C0.66 0.66 1.32 1.32 2 2 C1.67 3.32 1.34 4.64 1 6 C-1.97 5.01 -4.94 4.02 -8 3 C-7.67 2.01 -7.34 1.02 -7 0 C-4.29393021 -1.35303489 -2.8671629 -0.7884698 0 0 Z " fill="#A246B2" transform="translate(110,36)"/>
<path d="M0 0 C7.42857143 -0.14285714 7.42857143 -0.14285714 11 1 C10.3125 2.9375 10.3125 2.9375 9 5 C6.375 5.75 6.375 5.75 4 6 C0 1.125 0 1.125 0 0 Z " fill="#A344B8" transform="translate(76,142)"/>
<path d="M0 0 C2.0625 1.75 2.0625 1.75 4 4 C4.0625 6.0625 4.0625 6.0625 3 8 C0.4375 9.75 0.4375 9.75 -2 11 C-2.28571429 3.57142857 -2.28571429 3.57142857 0 0 Z " fill="#AB388B" transform="translate(41,81)"/>
<path d="M0 0 C0 0.66 0 1.32 0 2 C-1.75 3.5078125 -1.75 3.5078125 -4 5.125 C-4.7425 5.66382813 -5.485 6.20265625 -6.25 6.7578125 C-6.8275 7.16773438 -7.405 7.57765625 -8 8 C-9 7 -9 7 -9.3125 4.625 C-9 2 -9 2 -7.3125 0.125 C-4.42729162 -1.27861489 -3.01268757 -0.92054342 0 0 Z " fill="#A344AB" transform="translate(59,47)"/>
<path d="M0 0 C0.66 0.66 1.32 1.32 2 2 C1.78739686 4.76384076 1.32831986 6.52393621 -0.25 8.8125 C-2.58011277 10.39364795 -4.24501755 10.22337696 -7 10 C-5.33248852 6.05860922 -2.77289351 3.2107188 0 0 Z " fill="#9954D6" transform="translate(44,46)"/>
<path d="M0 0 C0.66 0.99 1.32 1.98 2 3 C-2.95 5.475 -2.95 5.475 -8 8 C-8 3 -8 3 -6.8125 1.1875 C-4.36655047 -0.41501866 -2.86618213 -0.4409511 0 0 Z " fill="#A542A7" transform="translate(74,36)"/>
<path d="M0 0 C0.66 0 1.32 0 2 0 C3.33157895 5.44736842 3.33157895 5.44736842 1.875 7.875 C-0.53722513 9.32233508 -2.2351335 9.22417836 -5 9 C-3.50079488 5.88626628 -1.91847864 2.87771795 0 0 Z " fill="#A344AC" transform="translate(135,117)"/>
<path d="M0 0 C4 1 4 1 6 3 C5.625 6.125 5.625 6.125 5 9 C3.68 9.33 2.36 9.66 1 10 C0.67 6.7 0.34 3.4 0 0 Z " fill="#A442A7" transform="translate(135,60)"/>
<path d="M0 0 C-1.1094072 3.48670834 -2.26337666 6.77484237 -4 10 C-4.66 10 -5.32 10 -6 10 C-7.33827893 3.55192878 -7.33827893 3.55192878 -5.8125 1.0625 C-4 0 -4 0 0 0 Z " fill="#A641A9" transform="translate(46,62)"/>
<path d="M0 0 C2.4375 0.625 2.4375 0.625 5 2 C6 4.9375 6 4.9375 6 8 C4.5 9.69140625 4.5 9.69140625 3 11 C2.49384702 9.73160474 1.99530901 8.46016898 1.5 7.1875 C1.2215625 6.47980469 0.943125 5.77210938 0.65625 5.04296875 C0 3 0 3 0 0 Z " fill="#9857DC" transform="translate(63,143)"/>
<path d="M0 0 C0.99 0 1.98 0 3 0 C3.66 3.3 4.32 6.6 5 10 C1 9 1 9 -1 7 C-0.625 3.375 -0.625 3.375 0 0 Z " fill="#A442A8" transform="translate(37,101)"/>
<path d="M0 0 C0.99 0 1.98 0 3 0 C3.99 2.97 4.98 5.94 6 9 C3.625 8.6875 3.625 8.6875 1 8 C-1 5 -1 5 -0.625 2.3125 C-0.41875 1.549375 -0.2125 0.78625 0 0 Z " fill="#A345AD" transform="translate(45,119)"/>
<path d="M0 0 C-0.99 1.32 -1.98 2.64 -3 4 C-5.31 3.67 -7.62 3.34 -10 3 C-10.33 2.01 -10.66 1.02 -11 0 C-6.94952424 -1.35015859 -4.2079832 -0.62084998 0 0 Z " fill="#AB3789" transform="translate(96,39)"/>
<path d="M0 0 C2.625 0.75 2.625 0.75 5 2 C5.33 2.66 5.66 3.32 6 4 C1.05 5.485 1.05 5.485 -4 7 C-3.67 5.35 -3.34 3.7 -3 2 C-2.01 1.34 -1.02 0.68 0 0 Z " fill="#AA388C" transform="translate(100,136)"/>
<path d="M0 0 C1.231394 3.69418201 0.64432764 6.2056261 0 10 C-0.99 10 -1.98 10 -3 10 C-4 9 -4 9 -4.3125 6.125 C-4 3 -4 3 -2 1.125 C-1.34 0.75375 -0.68 0.3825 0 0 Z " fill="#AB3282" transform="translate(139,97)"/>
<path d="M0 0 C0.99 0.99 1.98 1.98 3 3 C2.84946418 6.01071639 2.41319987 7.52068815 0.4375 9.8125 C-0.036875 10.204375 -0.51125 10.59625 -1 11 C-1.66 10.67 -2.32 10.34 -3 10 C-2.01 6.7 -1.02 3.4 0 0 Z " fill="#9954D7" transform="translate(29,81)"/>
<path d="M0 0 C-0.36512747 2.7019433 -0.69869237 4.58390852 -2.3125 6.8125 C-4 8 -4 8 -8 8 C-6.48291727 4.46014029 -4.24676932 0 0 0 Z " fill="#9A53D4" transform="translate(60,35)"/>
<path d="M0 0 C0.99 0.33 1.98 0.66 3 1 C2.04578192 2.14926266 1.08647955 3.29430541 0.125 4.4375 C-0.40867188 5.07558594 -0.94234375 5.71367187 -1.4921875 6.37109375 C-3 8 -3 8 -5 9 C-5.3125 6.75 -5.3125 6.75 -5 4 C-2.6875 1.625 -2.6875 1.625 0 0 Z " fill="#9A54D6" transform="translate(134,131)"/>
<path d="M0 0 C5.53846154 -0.36923077 5.53846154 -0.36923077 7.875 1.5 C8.24625 1.995 8.6175 2.49 9 3 C8.67 3.99 8.34 4.98 8 6 C3.545 4.02 3.545 4.02 -1 2 C-0.67 1.34 -0.34 0.68 0 0 Z " fill="#9954D8" transform="translate(78,149)"/>
<path d="M0 0 C1.2065625 0.0309375 1.2065625 0.0309375 2.4375 0.0625 C2.4375 1.0525 2.4375 2.0425 2.4375 3.0625 C-3.3125 6.0625 -3.3125 6.0625 -5.5625 6.0625 C-3.26136364 0.07954545 -3.26136364 0.07954545 0 0 Z " fill="#AC3687" transform="translate(118.5625,128.9375)"/>
<path d="M0 0 C2.97 0.495 2.97 0.495 6 1 C6.33 2.32 6.66 3.64 7 5 C4.36 4.67 1.72 4.34 -1 4 C-0.67 2.68 -0.34 1.36 0 0 Z " fill="#AB3687" transform="translate(62,130)"/>
<path d="M0 0 C0.763125 0.20625 1.52625 0.4125 2.3125 0.625 C-2.83035714 5.05357143 -2.83035714 5.05357143 -6.6875 5.625 C-6.375 3.75 -6.375 3.75 -5.6875 1.625 C-2.6875 -0.375 -2.6875 -0.375 0 0 Z " fill="#9A54D4" transform="translate(101.6875,148.375)"/>
<path d="M0 0 C0.99 0.66 1.98 1.32 3 2 C-1.455 4.97 -1.455 4.97 -6 8 C-5 3 -5 3 -2.4375 1.1875 C-1.633125 0.795625 -0.82875 0.40375 0 0 Z " fill="#9953D6" transform="translate(119,142)"/>
<path d="M0 0 C3.63 0 7.26 0 11 0 C11 0.99 11 1.98 11 3 C7.37 3 3.74 3 0 3 C0 2.01 0 1.02 0 0 Z " fill="#A63F9F" transform="translate(85,36)"/>
<path d="M0 0 C0.99 0.33 1.98 0.66 3 1 C2.02471263 2.33617352 1.04466681 3.6688751 0.0625 5 C-0.48277344 5.7425 -1.02804688 6.485 -1.58984375 7.25 C-2.28787109 8.11625 -2.28787109 8.11625 -3 9 C-3.33 9 -3.66 9 -4 9 C-3.6875 5.625 -3.6875 5.625 -3 2 C-2.01 1.34 -1.02 0.68 0 0 Z " fill="#9953D5" transform="translate(145,116)"/>
<path d="M0 0 C3.875 1.875 3.875 1.875 5 3 C5.04063832 4.66617115 5.042721 6.33388095 5 8 C4.01 8.495 4.01 8.495 3 9 C0 3.375 0 3.375 0 0 Z " fill="#AD3681" transform="translate(50,117)"/>
<path d="M0 0 C-1.55603771 3.81936528 -3.95604931 6.26044438 -7 9 C-7.66 9 -8.32 9 -9 9 C-7.45665977 5.21180126 -4.44676575 0 0 0 Z " fill="#9659E5" transform="translate(139,132)"/>
<path d="M0 0 C0.66 0 1.32 0 2 0 C5.07692308 6.4 5.07692308 6.4 4.6875 9.4375 C4.460625 9.953125 4.23375 10.46875 4 11 C3.34 10.67 2.68 10.34 2 10 C1.3671875 7.71484375 1.3671875 7.71484375 0.875 4.9375 C0.70742188 4.01839844 0.53984375 3.09929687 0.3671875 2.15234375 C0.24601562 1.44207031 0.12484375 0.73179688 0 0 Z " fill="#A93A93" transform="translate(39,100)"/>
<path d="M0 0 C5.75 1.75 5.75 1.75 8 4 C5.6875 4.625 5.6875 4.625 3 5 C2.01 4.34 1.02 3.68 0 3 C0 2.01 0 1.02 0 0 Z " fill="#AC3482" transform="translate(102,41)"/>
<path d="M0 0 C3.375 0.25 3.375 0.25 7 1 C8.4375 3.0625 8.4375 3.0625 9 5 C5.30581799 5 3.22163822 3.71820705 0 2 C0 1.34 0 0.68 0 0 Z " fill="#A640A1" transform="translate(120,47)"/>
<path d="M0 0 C1.32 0 2.64 0 4 0 C4 0.99 4 1.98 4 3 C2.02 3 0.04 3 -2 3 C-1.34 2.01 -0.68 1.02 0 0 Z M-5 3 C-4.01 3.33 -3.02 3.66 -2 4 C-3.98 4.99 -3.98 4.99 -6 6 C-5.67 5.01 -5.34 4.02 -5 3 Z " fill="#A83C98" transform="translate(73,39)"/>
<path d="M0 0 C0.6875 1.8125 0.6875 1.8125 1 4 C-0.1875 5.75 -0.1875 5.75 -2 7 C-3.32 7 -4.64 7 -6 7 C-6 6.34 -6 5.68 -6 5 C-4.04072937 3.2856382 -2.04119788 1.61594832 0 0 Z " fill="#9A53D5" transform="translate(76,27)"/>
<path d="M0 0 C0.33 0.66 0.66 1.32 1 2 C3.3140622 2.73075648 5.64828869 3.40138258 8 4 C7.67 4.66 7.34 5.32 7 6 C4.03 5.505 4.03 5.505 1 5 C0.67 3.35 0.34 1.7 0 0 Z " fill="#A147B6" transform="translate(59,135)"/>
<path d="M0 0 C0.66 0.33 1.32 0.66 2 1 C1.67 4.3 1.34 7.6 1 11 C0.01 10.67 -0.98 10.34 -2 10 C-1.34 6.7 -0.68 3.4 0 0 Z " fill="#A83C97" transform="translate(140,97)"/>
<path d="M0 0 C0.33 1.32 0.66 2.64 1 4 C-0.1875 5.8125 -0.1875 5.8125 -2 7 C-3.32 6.67 -4.64 6.34 -6 6 C-4.02 4.02 -2.04 2.04 0 0 Z " fill="#AD337F" transform="translate(60,50)"/>
<path d="M0 0 C-0.3125 1.875 -0.3125 1.875 -1 4 C-4 6 -4 6 -7 6 C-7 5.34 -7 4.68 -7 4 C-2.52941176 0 -2.52941176 0 0 0 Z " fill="#A048B6" transform="translate(124,134)"/>
<path d="M0 0 C0.99 0.99 1.98 1.98 3 3 C2.875 5.0625 2.875 5.0625 2 7 C1.01 7.66 0.02 8.32 -1 9 C-0.67 6.03 -0.34 3.06 0 0 Z " fill="#AD347A" transform="translate(42,82)"/>
<path d="M0 0 C0.66 0 1.32 0 2 0 C2 2.64 2 5.28 2 8 C1.34 8 0.68 8 0 8 C-0.38063221 5.6739143 -0.71269945 3.33944736 -1 1 C-0.67 0.67 -0.34 0.34 0 0 Z " fill="#B23076" transform="translate(137,80)"/>
<path d="M0 0 C3.96 1.98 3.96 1.98 8 4 C7.67 4.66 7.34 5.32 7 6 C2.25 5.25 2.25 5.25 0 3 C0 2.01 0 1.02 0 0 Z " fill="#AB317F" transform="translate(118,50)"/>
<path d="M0 0 C0.99 0.66 1.98 1.32 3 2 C-0.625 7.75 -0.625 7.75 -4 10 C-3.71125 9.46375 -3.4225 8.9275 -3.125 8.375 C-1.83288192 5.64719516 -0.91441408 2.87387282 0 0 Z " fill="#A83C96" transform="translate(133,115)"/>
<path d="M0 0 C0.33 0 0.66 0 1 0 C0.67 2.97 0.34 5.94 0 9 C-0.66 8.67 -1.32 8.34 -2 8 C-2.125 5.125 -2.125 5.125 -2 2 C-1.34 1.34 -0.68 0.68 0 0 Z " fill="#A345AF" transform="translate(36,81)"/>
<path d="M0 0 C1.98 0 3.96 0 6 0 C6.66 1.32 7.32 2.64 8 4 C5.69 3.67 3.38 3.34 1 3 C0.67 2.01 0.34 1.02 0 0 Z " fill="#A541A5" transform="translate(102,37)"/>
<path d="M0 0 C0 0.66 0 1.32 0 2 C-1.53125 3.2890625 -1.53125 3.2890625 -3.5 4.625 C-4.1496875 5.07101563 -4.799375 5.51703125 -5.46875 5.9765625 C-5.9740625 6.31429687 -6.479375 6.65203125 -7 7 C-7.66 6.34 -8.32 5.68 -9 5 C-7.87926138 4.16094435 -6.75325453 3.32892169 -5.625 2.5 C-4.99851562 2.0359375 -4.37203125 1.571875 -3.7265625 1.09375 C-2 0 -2 0 0 0 Z " fill="#A442A8" transform="translate(124,132)"/>
<path d="M0 0 C0.66 0 1.32 0 2 0 C1.8125 2.375 1.8125 2.375 1 5 C-1.5625 6.3125 -1.5625 6.3125 -4 7 C-2.68 4.69 -1.36 2.38 0 0 Z " fill="#AF347A" transform="translate(48,66)"/>
<path d="M0 0 C-3.42346555 3.14958831 -6.44262737 3.56179109 -11 4 C-10 2 -10 2 -7.75 0.875 C-4.98386705 -0.00513321 -2.87951649 -0.1645438 0 0 Z " fill="#A53FA0" transform="translate(107,140)"/>
<path d="M0 0 C0.66 0.33 1.32 0.66 2 1 C0.68 3.31 -0.64 5.62 -2 8 C-2.33 8 -2.66 8 -3 8 C-3.36923077 3.44615385 -3.36923077 3.44615385 -1.5 1.1875 C-1.005 0.795625 -0.51 0.40375 0 0 Z " fill="#9B52D2" transform="translate(151,98)"/>
<path d="M0 0 C0.33 0 0.66 0 1 0 C1 2.97 1 5.94 1 9 C0.01 8.01 -0.98 7.02 -2 6 C-1.34 4.02 -0.68 2.04 0 0 Z " fill="#9B55D1" transform="translate(146,61)"/>
<path d="M0 0 C2.0625 0.4375 2.0625 0.4375 4 1 C-0.75 5 -0.75 5 -3 5 C-1.125 1.125 -1.125 1.125 0 0 Z " fill="#A147B4" transform="translate(69,36)"/>
<path d="M0 0 C2.64 0.33 5.28 0.66 8 1 C7.67 1.99 7.34 2.98 7 4 C4.69 3.34 2.38 2.68 0 2 C0 1.34 0 0.68 0 0 Z " fill="#A443A9" transform="translate(79,142)"/>
<path d="M0 0 C2.3431213 0.25561323 4.67843403 0.59270772 7 1 C7.33 1.66 7.66 2.32 8 3 C5.36 2.67 2.72 2.34 0 2 C0 1.34 0 0.68 0 0 Z " fill="#A93283" transform="translate(79,137)"/>
</svg>
