<svg width="391" height="403" viewBox="0 0 391 403" fill="none" xmlns="http://www.w3.org/2000/svg">
<path d="M189.5 6.56253C189.5 2.93815 192.439 -0.0111624 196.062 0.106839C230.876 1.24092 264.844 11.384 294.624 29.5957C326.273 48.95 351.965 76.6657 368.868 109.689C385.771 142.712 393.23 179.761 390.422 216.752C387.614 253.743 374.648 289.241 352.954 319.335C331.26 349.428 301.679 372.948 267.471 387.303C233.263 401.658 195.756 406.291 159.084 400.691C122.411 395.091 87.9959 379.476 59.6311 355.566C32.9408 333.068 12.5823 304.047 0.503317 271.375C-0.753504 267.975 1.11572 264.255 4.55433 263.109C7.99294 261.964 11.6981 263.828 12.9626 267.224C24.2728 297.604 43.2477 324.59 68.0904 345.531C94.6076 367.883 126.781 382.481 161.065 387.716C195.349 392.952 230.413 388.62 262.392 375.2C294.372 361.78 322.026 339.792 342.307 311.659C362.588 283.526 374.709 250.34 377.335 215.758C379.96 181.177 372.987 146.541 357.185 115.669C341.383 84.7971 317.364 58.8866 287.777 40.793C260.058 23.842 228.459 14.3683 196.061 13.2393C192.439 13.1131 189.5 10.1869 189.5 6.56253Z" fill="#007D49"/>
</svg>
