<svg width="39" height="52" viewBox="0 0 39 52" fill="none" xmlns="http://www.w3.org/2000/svg">
<g clip-path="url(#clip0_259_54)">
<path d="M22.75 13.8125V0H2.4375C1.08672 0 0 1.08672 0 2.4375V49.5625C0 50.9133 1.08672 52 2.4375 52H36.5625C37.9133 52 39 50.9133 39 49.5625V16.25H25.1875C23.8469 16.25 22.75 15.1531 22.75 13.8125ZM29.3698 35.751H22.75V43.876C22.75 44.7738 22.0228 45.501 21.125 45.501H17.875C16.9772 45.501 16.25 44.7738 16.25 43.876V35.751H9.63016C8.17984 35.751 7.4557 33.995 8.48555 32.9723L18.2782 23.2527C18.9536 22.5814 20.0444 22.5814 20.7198 23.2527L30.5124 32.9723C31.5433 33.995 30.8202 35.751 29.3698 35.751ZM38.2891 10.6641L28.3461 0.710938C27.8891 0.253906 27.2695 0 26.6195 0H26V13H39V12.3805C39 11.7406 38.7461 11.1211 38.2891 10.6641Z" fill="#262626"/>
</g>
<rect x="0.5" y="0.5" width="38" height="51" stroke="#383838"/>
<defs>
<clipPath id="clip0_259_54">
<rect width="39" height="52" fill="white"/>
</clipPath>
</defs>
</svg>
